<?xml version="1.0" encoding="UTF-8" standalone="no"?>
<!DOCTYPE svg PUBLIC "-//W3C//DTD SVG 1.1//EN"
 "http://www.w3.org/Graphics/SVG/1.1/DTD/svg11.dtd">
<!-- Generated by graphviz version 2.43.0 (0)
 -->
<!-- Title: sourcetree Pages: 1 -->
<svg width="3521pt" height="188pt"
 viewBox="0.00 0.00 3520.50 188.00" xmlns="http://www.w3.org/2000/svg" xmlns:xlink="http://www.w3.org/1999/xlink">
<g id="graph0" class="graph" transform="scale(1 1) rotate(0) translate(4 184)">
<title>sourcetree</title>
<polygon fill="white" stroke="transparent" points="-4,4 -4,-184 3516.5,-184 3516.5,4 -4,4"/>
<!-- mulle&#45;core&#45;all&#45;load -->
<g id="node1" class="node">
<title>mulle&#45;core&#45;all&#45;load</title>
<polygon fill="yellow" stroke="black" points="1844.5,-180 1696.5,-180 1696.5,-144 1844.5,-144 1844.5,-180"/>
<text text-anchor="middle" x="1770.5" y="-158.3" font-family="Times,serif" font-size="14.00">mulle&#45;core&#45;all&#45;load</text>
</g>
<!-- mulle&#45;atexit -->
<g id="node5" class="node">
<title>mulle&#45;atexit</title>
<g id="a_node5"><a xlink:href="https://github.com/mulle-core/mulle-atexit@*" xlink:title="mulle&#45;atexit">
<polygon fill="lightgrey" stroke="black" points="1588.5,-108 1486.5,-108 1486.5,-72 1588.5,-72 1588.5,-108"/>
<text text-anchor="middle" x="1537.5" y="-86.3" font-family="Times,serif" font-size="14.00">mulle&#45;atexit</text>
</a>
</g>
</g>
<!-- mulle&#45;core&#45;all&#45;load&#45;&gt;mulle&#45;atexit -->
<g id="edge1" class="edge">
<title>mulle&#45;core&#45;all&#45;load&#45;&gt;mulle&#45;atexit</title>
<path fill="none" stroke="black" d="M1713.8,-143.97C1678.95,-133.5 1634.32,-120.09 1598.68,-109.38"/>
<polygon fill="black" stroke="black" points="1599.46,-105.96 1588.88,-106.44 1597.45,-112.66 1599.46,-105.96"/>
</g>
<!-- mulle&#45;atinit -->
<g id="node6" class="node">
<title>mulle&#45;atinit</title>
<g id="a_node6"><a xlink:href="https://github.com/mulle-core/mulle-atinit@*" xlink:title="mulle&#45;atinit">
<polygon fill="lightgrey" stroke="black" points="1706,-108 1607,-108 1607,-72 1706,-72 1706,-108"/>
<text text-anchor="middle" x="1656.5" y="-86.3" font-family="Times,serif" font-size="14.00">mulle&#45;atinit</text>
</a>
</g>
</g>
<!-- mulle&#45;core&#45;all&#45;load&#45;&gt;mulle&#45;atinit -->
<g id="edge2" class="edge">
<title>mulle&#45;core&#45;all&#45;load&#45;&gt;mulle&#45;atinit</title>
<path fill="none" stroke="black" d="M1742.61,-143.88C1727.71,-134.72 1709.17,-123.34 1693.12,-113.48"/>
<polygon fill="black" stroke="black" points="1694.85,-110.44 1684.49,-108.19 1691.19,-116.41 1694.85,-110.44"/>
</g>
<!-- mulle&#45;core -->
<g id="node12" class="node">
<title>mulle&#45;core</title>
<g id="a_node12"><a xlink:href="https://github.com/mulle-core/mulle-core" xlink:title="mulle&#45;core">
<polygon fill="lightgrey" stroke="black" points="1816.5,-108 1724.5,-108 1724.5,-72 1816.5,-72 1816.5,-108"/>
<text text-anchor="middle" x="1770.5" y="-86.3" font-family="Times,serif" font-size="14.00">mulle&#45;core</text>
</a>
</g>
</g>
<!-- mulle&#45;core&#45;all&#45;load&#45;&gt;mulle&#45;core -->
<g id="edge3" class="edge">
<title>mulle&#45;core&#45;all&#45;load&#45;&gt;mulle&#45;core</title>
<path fill="none" stroke="black" d="M1770.5,-143.7C1770.5,-135.98 1770.5,-126.71 1770.5,-118.11"/>
<polygon fill="black" stroke="black" points="1774,-118.1 1770.5,-108.1 1767,-118.1 1774,-118.1"/>
</g>
<!-- mulle&#45;dlfcn -->
<g id="node13" class="node">
<title>mulle&#45;dlfcn</title>
<g id="a_node13"><a xlink:href="https://github.com/mulle-core/mulle-dlfcn@*" xlink:title="mulle&#45;dlfcn">
<polygon fill="lightgrey" stroke="black" points="1930.5,-108 1834.5,-108 1834.5,-72 1930.5,-72 1930.5,-108"/>
<text text-anchor="middle" x="1882.5" y="-86.3" font-family="Times,serif" font-size="14.00">mulle&#45;dlfcn</text>
</a>
</g>
</g>
<!-- mulle&#45;core&#45;all&#45;load&#45;&gt;mulle&#45;dlfcn -->
<g id="edge4" class="edge">
<title>mulle&#45;core&#45;all&#45;load&#45;&gt;mulle&#45;dlfcn</title>
<path fill="none" stroke="black" d="M1797.9,-143.88C1812.41,-134.81 1830.42,-123.55 1846.09,-113.76"/>
<polygon fill="black" stroke="black" points="1848.37,-116.46 1855,-108.19 1844.66,-110.52 1848.37,-116.46"/>
</g>
<!-- mulle&#45;stacktrace -->
<g id="node14" class="node">
<title>mulle&#45;stacktrace</title>
<g id="a_node14"><a xlink:href="https://github.com/mulle-core/mulle-stacktrace@*" xlink:title="mulle&#45;stacktrace">
<polygon fill="lightgrey" stroke="black" points="2084,-108 1949,-108 1949,-72 2084,-72 2084,-108"/>
<text text-anchor="middle" x="2016.5" y="-86.3" font-family="Times,serif" font-size="14.00">mulle&#45;stacktrace</text>
</a>
</g>
</g>
<!-- mulle&#45;core&#45;all&#45;load&#45;&gt;mulle&#45;stacktrace -->
<g id="edge5" class="edge">
<title>mulle&#45;core&#45;all&#45;load&#45;&gt;mulle&#45;stacktrace</title>
<path fill="none" stroke="black" d="M1830.36,-143.97C1865.48,-133.97 1910.02,-121.3 1946.73,-110.85"/>
<polygon fill="black" stroke="black" points="1947.71,-114.21 1956.37,-108.11 1945.79,-107.48 1947.71,-114.21"/>
</g>
<!-- mintomic -->
<g id="node2" class="node">
<title>mintomic</title>
<g id="a_node2"><a xlink:href="https://github.com/mulle-concurrent/mintomic" xlink:title="mintomic">
<polygon fill="lightgrey" stroke="black" points="83,-36 0,-36 0,0 83,0 83,-36"/>
<text text-anchor="middle" x="41.5" y="-14.3" font-family="Times,serif" font-size="14.00">mintomic</text>
</a>
</g>
</g>
<!-- mulle&#45;aba -->
<g id="node3" class="node">
<title>mulle&#45;aba</title>
<g id="a_node3"><a xlink:href="https://github.com/mulle-concurrent/mulle-aba@*" xlink:title="mulle&#45;aba">
<polygon fill="lightgrey" stroke="black" points="187.5,-36 101.5,-36 101.5,0 187.5,0 187.5,-36"/>
<text text-anchor="middle" x="144.5" y="-14.3" font-family="Times,serif" font-size="14.00">mulle&#45;aba</text>
</a>
</g>
</g>
<!-- mulle&#45;allocator -->
<g id="node4" class="node">
<title>mulle&#45;allocator</title>
<g id="a_node4"><a xlink:href="https://github.com/mulle-c/mulle-allocator@*" xlink:title="mulle&#45;allocator">
<polygon fill="lightgrey" stroke="black" points="329,-36 206,-36 206,0 329,0 329,-36"/>
<text text-anchor="middle" x="267.5" y="-14.3" font-family="Times,serif" font-size="14.00">mulle&#45;allocator</text>
</a>
</g>
</g>
<!-- mulle&#45;buffer -->
<g id="node7" class="node">
<title>mulle&#45;buffer</title>
<g id="a_node7"><a xlink:href="https://github.com/mulle-c/mulle-buffer@*" xlink:title="mulle&#45;buffer">
<polygon fill="lightgrey" stroke="black" points="451.5,-36 347.5,-36 347.5,0 451.5,0 451.5,-36"/>
<text text-anchor="middle" x="399.5" y="-14.3" font-family="Times,serif" font-size="14.00">mulle&#45;buffer</text>
</a>
</g>
</g>
<!-- mulle&#45;c11 -->
<g id="node8" class="node">
<title>mulle&#45;c11</title>
<g id="a_node8"><a xlink:href="https://github.com/mulle-c/mulle-c11@*" xlink:title="mulle&#45;c11">
<polygon fill="lightgrey" stroke="black" points="555.5,-36 469.5,-36 469.5,0 555.5,0 555.5,-36"/>
<text text-anchor="middle" x="512.5" y="-14.3" font-family="Times,serif" font-size="14.00">mulle&#45;c11</text>
</a>
</g>
</g>
<!-- mulle&#45;concurrent -->
<g id="node9" class="node">
<title>mulle&#45;concurrent</title>
<g id="a_node9"><a xlink:href="https://github.com/mulle-concurrent/mulle-concurrent@*" xlink:title="mulle&#45;concurrent">
<polygon fill="lightgrey" stroke="black" points="713,-36 574,-36 574,0 713,0 713,-36"/>
<text text-anchor="middle" x="643.5" y="-14.3" font-family="Times,serif" font-size="14.00">mulle&#45;concurrent</text>
</a>
</g>
</g>
<!-- mulle&#45;container&#45;debug -->
<g id="node10" class="node">
<title>mulle&#45;container&#45;debug</title>
<g id="a_node10"><a xlink:href="https://github.com/mulle-c/mulle-container-debug@*" xlink:title="mulle&#45;container&#45;debug">
<polygon fill="lightgrey" stroke="black" points="908,-36 731,-36 731,0 908,0 908,-36"/>
<text text-anchor="middle" x="819.5" y="-14.3" font-family="Times,serif" font-size="14.00">mulle&#45;container&#45;debug</text>
</a>
</g>
</g>
<!-- mulle&#45;container -->
<g id="node11" class="node">
<title>mulle&#45;container</title>
<g id="a_node11"><a xlink:href="https://github.com/mulle-c/mulle-container@*" xlink:title="mulle&#45;container">
<polygon fill="lightgrey" stroke="black" points="1054.5,-36 926.5,-36 926.5,0 1054.5,0 1054.5,-36"/>
<text text-anchor="middle" x="990.5" y="-14.3" font-family="Times,serif" font-size="14.00">mulle&#45;container</text>
</a>
</g>
</g>
<!-- mulle&#45;core&#45;&gt;mintomic -->
<g id="edge6" class="edge">
<title>mulle&#45;core&#45;&gt;mintomic</title>
<path fill="none" stroke="black" d="M1724.28,-73.91C1720.99,-73.16 1717.71,-72.51 1714.5,-72 1361.7,-15.62 464.12,-96.22 93.28,-35.72"/>
<polygon fill="black" stroke="black" points="93.71,-32.24 83.27,-34.03 92.55,-39.14 93.71,-32.24"/>
</g>
<!-- mulle&#45;core&#45;&gt;mulle&#45;aba -->
<g id="edge7" class="edge">
<title>mulle&#45;core&#45;&gt;mulle&#45;aba</title>
<path fill="none" stroke="black" d="M1724.28,-73.91C1720.99,-73.17 1717.71,-72.52 1714.5,-72 1384.51,-19.01 545.26,-91.63 197.56,-35.8"/>
<polygon fill="black" stroke="black" points="198.11,-32.35 187.67,-34.16 196.96,-39.25 198.11,-32.35"/>
</g>
<!-- mulle&#45;core&#45;&gt;mulle&#45;allocator -->
<g id="edge8" class="edge">
<title>mulle&#45;core&#45;&gt;mulle&#45;allocator</title>
<path fill="none" stroke="black" d="M1724.28,-73.92C1720.99,-73.17 1717.71,-72.52 1714.5,-72 1113.98,25.18 946.93,-114.08 339.64,-35.95"/>
<polygon fill="black" stroke="black" points="339.68,-32.42 329.31,-34.6 338.78,-39.37 339.68,-32.42"/>
</g>
<!-- mulle&#45;core&#45;&gt;mulle&#45;buffer -->
<g id="edge9" class="edge">
<title>mulle&#45;core&#45;&gt;mulle&#45;buffer</title>
<path fill="none" stroke="black" d="M1724.28,-73.93C1720.99,-73.18 1717.71,-72.52 1714.5,-72 1167.57,17.23 1013.66,-117.79 461.77,-35.94"/>
<polygon fill="black" stroke="black" points="461.97,-32.43 451.56,-34.41 460.93,-39.35 461.97,-32.43"/>
</g>
<!-- mulle&#45;core&#45;&gt;mulle&#45;c11 -->
<g id="edge10" class="edge">
<title>mulle&#45;core&#45;&gt;mulle&#45;c11</title>
<path fill="none" stroke="black" d="M1724.28,-73.94C1720.99,-73.19 1717.71,-72.53 1714.5,-72 1213.24,10.44 1070.06,-122.57 565.76,-35.89"/>
<polygon fill="black" stroke="black" points="566.13,-32.4 555.68,-34.13 564.93,-39.3 566.13,-32.4"/>
</g>
<!-- mulle&#45;core&#45;&gt;mulle&#45;concurrent -->
<g id="edge11" class="edge">
<title>mulle&#45;core&#45;&gt;mulle&#45;concurrent</title>
<path fill="none" stroke="black" d="M1724.27,-73.96C1720.99,-73.2 1717.71,-72.54 1714.5,-72 1282.21,0.2 1161.48,-89.86 723.22,-36.08"/>
<polygon fill="black" stroke="black" points="723.49,-32.58 713.13,-34.82 722.63,-39.53 723.49,-32.58"/>
</g>
<!-- mulle&#45;core&#45;&gt;mulle&#45;container&#45;debug -->
<g id="edge13" class="edge">
<title>mulle&#45;core&#45;&gt;mulle&#45;container&#45;debug</title>
<path fill="none" stroke="black" d="M1724.27,-73.99C1720.98,-73.23 1717.7,-72.55 1714.5,-72 1368.27,-12.59 1271.79,-73.23 918.11,-35.96"/>
<polygon fill="black" stroke="black" points="918.42,-32.47 908.1,-34.89 917.67,-39.43 918.42,-32.47"/>
</g>
<!-- mulle&#45;core&#45;&gt;mulle&#45;container -->
<g id="edge12" class="edge">
<title>mulle&#45;core&#45;&gt;mulle&#45;container</title>
<path fill="none" stroke="black" d="M1724.26,-74.03C1720.98,-73.26 1717.7,-72.57 1714.5,-72 1432.49,-22.14 1352.23,-75.73 1065.17,-36.08"/>
<polygon fill="black" stroke="black" points="1065.26,-32.56 1054.87,-34.63 1064.29,-39.49 1065.26,-32.56"/>
</g>
<!-- mulle&#45;data -->
<g id="node15" class="node">
<title>mulle&#45;data</title>
<g id="a_node15"><a xlink:href="https://github.com/mulle-c/mulle-data@*" xlink:title="mulle&#45;data">
<polygon fill="lightgrey" stroke="black" points="1164.5,-36 1072.5,-36 1072.5,0 1164.5,0 1164.5,-36"/>
<text text-anchor="middle" x="1118.5" y="-14.3" font-family="Times,serif" font-size="14.00">mulle&#45;data</text>
</a>
</g>
</g>
<!-- mulle&#45;core&#45;&gt;mulle&#45;data -->
<g id="edge14" class="edge">
<title>mulle&#45;core&#45;&gt;mulle&#45;data</title>
<path fill="none" stroke="black" d="M1724.25,-74.07C1720.97,-73.29 1717.7,-72.58 1714.5,-72 1480.68,-29.31 1412.31,-78.5 1174.51,-35.9"/>
<polygon fill="black" stroke="black" points="1174.98,-32.43 1164.52,-34.08 1173.73,-39.32 1174.98,-32.43"/>
</g>
<!-- mulle&#45;dtostr -->
<g id="node16" class="node">
<title>mulle&#45;dtostr</title>
<g id="a_node16"><a xlink:href="https://github.com/mulle-core/mulle-dtostr@*" xlink:title="mulle&#45;dtostr">
<polygon fill="lightgrey" stroke="black" points="1286.5,-36 1182.5,-36 1182.5,0 1286.5,0 1286.5,-36"/>
<text text-anchor="middle" x="1234.5" y="-14.3" font-family="Times,serif" font-size="14.00">mulle&#45;dtostr</text>
</a>
</g>
</g>
<!-- mulle&#45;core&#45;&gt;mulle&#45;dtostr -->
<g id="edge15" class="edge">
<title>mulle&#45;core&#45;&gt;mulle&#45;dtostr</title>
<path fill="none" stroke="black" d="M1724.24,-74.14C1720.96,-73.34 1717.69,-72.61 1714.5,-72 1534.19,-37.28 1481.28,-68.11 1296.63,-35.99"/>
<polygon fill="black" stroke="black" points="1297.05,-32.51 1286.6,-34.21 1295.83,-39.4 1297.05,-32.51"/>
</g>
<!-- mulle&#45;fifo -->
<g id="node17" class="node">
<title>mulle&#45;fifo</title>
<g id="a_node17"><a xlink:href="https://github.com/mulle-concurrent/mulle-fifo@*" xlink:title="mulle&#45;fifo">
<polygon fill="lightgrey" stroke="black" points="1388,-36 1305,-36 1305,0 1388,0 1388,-36"/>
<text text-anchor="middle" x="1346.5" y="-14.3" font-family="Times,serif" font-size="14.00">mulle&#45;fifo</text>
</a>
</g>
</g>
<!-- mulle&#45;core&#45;&gt;mulle&#45;fifo -->
<g id="edge16" class="edge">
<title>mulle&#45;core&#45;&gt;mulle&#45;fifo</title>
<path fill="none" stroke="black" d="M1724.22,-74.24C1720.95,-73.42 1717.68,-72.66 1714.5,-72 1578.47,-43.9 1537.23,-65.98 1398.23,-36.12"/>
<polygon fill="black" stroke="black" points="1398.57,-32.61 1388.05,-33.87 1397.06,-39.44 1398.57,-32.61"/>
</g>
<!-- mulle&#45;fprintf -->
<g id="node18" class="node">
<title>mulle&#45;fprintf</title>
<g id="a_node18"><a xlink:href="https://github.com/mulle-core/mulle-fprintf@*" xlink:title="mulle&#45;fprintf">
<polygon fill="lightgrey" stroke="black" points="1513,-36 1406,-36 1406,0 1513,0 1513,-36"/>
<text text-anchor="middle" x="1459.5" y="-14.3" font-family="Times,serif" font-size="14.00">mulle&#45;fprintf</text>
</a>
</g>
</g>
<!-- mulle&#45;core&#45;&gt;mulle&#45;fprintf -->
<g id="edge17" class="edge">
<title>mulle&#45;core&#45;&gt;mulle&#45;fprintf</title>
<path fill="none" stroke="black" d="M1724.47,-74.59C1721.11,-73.67 1717.76,-72.8 1714.5,-72 1632.8,-52.04 1608.29,-55.28 1523.05,-36.25"/>
<polygon fill="black" stroke="black" points="1523.73,-32.82 1513.2,-34.02 1522.18,-39.64 1523.73,-32.82"/>
</g>
<!-- mulle&#45;http -->
<g id="node19" class="node">
<title>mulle&#45;http</title>
<g id="a_node19"><a xlink:href="https://github.com/mulle-c/mulle-http@*" xlink:title="mulle&#45;http">
<polygon fill="lightgrey" stroke="black" points="1622,-36 1531,-36 1531,0 1622,0 1622,-36"/>
<text text-anchor="middle" x="1576.5" y="-14.3" font-family="Times,serif" font-size="14.00">mulle&#45;http</text>
</a>
</g>
</g>
<!-- mulle&#45;core&#45;&gt;mulle&#45;http -->
<g id="edge18" class="edge">
<title>mulle&#45;core&#45;&gt;mulle&#45;http</title>
<path fill="none" stroke="black" d="M1724.03,-72.23C1696.34,-62.24 1661.02,-49.5 1631.88,-38.98"/>
<polygon fill="black" stroke="black" points="1632.85,-35.61 1622.25,-35.51 1630.47,-42.2 1632.85,-35.61"/>
</g>
<!-- mulle&#45;linkedlist -->
<g id="node20" class="node">
<title>mulle&#45;linkedlist</title>
<g id="a_node20"><a xlink:href="https://github.com/mulle-concurrent/mulle-linkedlist@*" xlink:title="mulle&#45;linkedlist">
<polygon fill="lightgrey" stroke="black" points="1767,-36 1640,-36 1640,0 1767,0 1767,-36"/>
<text text-anchor="middle" x="1703.5" y="-14.3" font-family="Times,serif" font-size="14.00">mulle&#45;linkedlist</text>
</a>
</g>
</g>
<!-- mulle&#45;core&#45;&gt;mulle&#45;linkedlist -->
<g id="edge19" class="edge">
<title>mulle&#45;core&#45;&gt;mulle&#45;linkedlist</title>
<path fill="none" stroke="black" d="M1753.94,-71.7C1745.82,-63.22 1735.91,-52.86 1727.03,-43.58"/>
<polygon fill="black" stroke="black" points="1729.31,-40.91 1719.87,-36.1 1724.26,-45.75 1729.31,-40.91"/>
</g>
<!-- mulle&#45;mmap -->
<g id="node21" class="node">
<title>mulle&#45;mmap</title>
<g id="a_node21"><a xlink:href="https://github.com/mulle-core/mulle-mmap@*" xlink:title="mulle&#45;mmap">
<polygon fill="lightgrey" stroke="black" points="1890,-36 1785,-36 1785,0 1890,0 1890,-36"/>
<text text-anchor="middle" x="1837.5" y="-14.3" font-family="Times,serif" font-size="14.00">mulle&#45;mmap</text>
</a>
</g>
</g>
<!-- mulle&#45;core&#45;&gt;mulle&#45;mmap -->
<g id="edge20" class="edge">
<title>mulle&#45;core&#45;&gt;mulle&#45;mmap</title>
<path fill="none" stroke="black" d="M1787.06,-71.7C1795.18,-63.22 1805.09,-52.86 1813.97,-43.58"/>
<polygon fill="black" stroke="black" points="1816.74,-45.75 1821.13,-36.1 1811.69,-40.91 1816.74,-45.75"/>
</g>
<!-- mulle&#45;multififo -->
<g id="node22" class="node">
<title>mulle&#45;multififo</title>
<g id="a_node22"><a xlink:href="https://github.com/mulle-concurrent/mulle-multififo@*" xlink:title="mulle&#45;multififo">
<polygon fill="lightgrey" stroke="black" points="2029,-36 1908,-36 1908,0 2029,0 2029,-36"/>
<text text-anchor="middle" x="1968.5" y="-14.3" font-family="Times,serif" font-size="14.00">mulle&#45;multififo</text>
</a>
</g>
</g>
<!-- mulle&#45;core&#45;&gt;mulle&#45;multififo -->
<g id="edge21" class="edge">
<title>mulle&#45;core&#45;&gt;mulle&#45;multififo</title>
<path fill="none" stroke="black" d="M1816.67,-72.68C1844.72,-62.76 1880.77,-50.02 1910.7,-39.44"/>
<polygon fill="black" stroke="black" points="1911.92,-42.72 1920.18,-36.08 1909.59,-36.12 1911.92,-42.72"/>
</g>
<!-- mulle&#45;rbtree -->
<g id="node23" class="node">
<title>mulle&#45;rbtree</title>
<g id="a_node23"><a xlink:href="https://github.com/mulle-c/mulle-rbtree@*" xlink:title="mulle&#45;rbtree">
<polygon fill="lightgrey" stroke="black" points="2153.5,-36 2047.5,-36 2047.5,0 2153.5,0 2153.5,-36"/>
<text text-anchor="middle" x="2100.5" y="-14.3" font-family="Times,serif" font-size="14.00">mulle&#45;rbtree</text>
</a>
</g>
</g>
<!-- mulle&#45;core&#45;&gt;mulle&#45;rbtree -->
<g id="edge22" class="edge">
<title>mulle&#45;core&#45;&gt;mulle&#45;rbtree</title>
<path fill="none" stroke="black" d="M1816.59,-74.27C1819.59,-73.46 1822.58,-72.69 1825.5,-72 1915.8,-50.51 1942.96,-56.29 2037.5,-36.09"/>
<polygon fill="black" stroke="black" points="2038.46,-39.46 2047.49,-33.91 2036.97,-32.62 2038.46,-39.46"/>
</g>
<!-- mulle&#45;rbtree&#45;debug -->
<g id="node24" class="node">
<title>mulle&#45;rbtree&#45;debug</title>
<g id="a_node24"><a xlink:href="https://github.com/mulle-core/mulle-rbtree-debug@*" xlink:title="mulle&#45;rbtree&#45;debug">
<polygon fill="lightgrey" stroke="black" points="2327,-36 2172,-36 2172,0 2327,0 2327,-36"/>
<text text-anchor="middle" x="2249.5" y="-14.3" font-family="Times,serif" font-size="14.00">mulle&#45;rbtree&#45;debug</text>
</a>
</g>
</g>
<!-- mulle&#45;core&#45;&gt;mulle&#45;rbtree&#45;debug -->
<g id="edge23" class="edge">
<title>mulle&#45;core&#45;&gt;mulle&#45;rbtree&#45;debug</title>
<path fill="none" stroke="black" d="M1816.54,-74.06C1819.56,-73.3 1822.56,-72.6 1825.5,-72 1969.86,-42.27 2011.76,-57.76 2161.73,-36.02"/>
<polygon fill="black" stroke="black" points="2162.39,-39.46 2171.77,-34.53 2161.36,-32.54 2162.39,-39.46"/>
</g>
<!-- mulle&#45;regex -->
<g id="node25" class="node">
<title>mulle&#45;regex</title>
<g id="a_node25"><a xlink:href="https://github.com/mulle-c/mulle-regex@*" xlink:title="mulle&#45;regex">
<polygon fill="lightgrey" stroke="black" points="2446,-36 2345,-36 2345,0 2446,0 2446,-36"/>
<text text-anchor="middle" x="2395.5" y="-14.3" font-family="Times,serif" font-size="14.00">mulle&#45;regex</text>
</a>
</g>
</g>
<!-- mulle&#45;core&#45;&gt;mulle&#45;regex -->
<g id="edge24" class="edge">
<title>mulle&#45;core&#45;&gt;mulle&#45;regex</title>
<path fill="none" stroke="black" d="M1816.52,-73.94C1819.54,-73.21 1822.55,-72.55 1825.5,-72 2046.01,-30.72 2110.44,-74.42 2334.7,-36.1"/>
<polygon fill="black" stroke="black" points="2335.56,-39.51 2344.81,-34.34 2334.36,-32.61 2335.56,-39.51"/>
</g>
<!-- mulle&#45;slug -->
<g id="node26" class="node">
<title>mulle&#45;slug</title>
<g id="a_node26"><a xlink:href="https://github.com/mulle-c/mulle-slug@*" xlink:title="mulle&#45;slug">
<polygon fill="lightgrey" stroke="black" points="2555,-36 2464,-36 2464,0 2555,0 2555,-36"/>
<text text-anchor="middle" x="2509.5" y="-14.3" font-family="Times,serif" font-size="14.00">mulle&#45;slug</text>
</a>
</g>
</g>
<!-- mulle&#45;core&#45;&gt;mulle&#45;slug -->
<g id="edge25" class="edge">
<title>mulle&#45;core&#45;&gt;mulle&#45;slug</title>
<path fill="none" stroke="black" d="M1816.51,-73.89C1819.53,-73.17 1822.55,-72.53 1825.5,-72 2098.27,-22.81 2177.77,-85.01 2453.83,-36.04"/>
<polygon fill="black" stroke="black" points="2454.52,-39.48 2463.74,-34.26 2453.28,-32.59 2454.52,-39.48"/>
</g>
<!-- mulle&#45;sprintf -->
<g id="node27" class="node">
<title>mulle&#45;sprintf</title>
<g id="a_node27"><a xlink:href="https://github.com/mulle-core/mulle-sprintf@*" xlink:title="mulle&#45;sprintf">
<polygon fill="lightgrey" stroke="black" points="2682,-36 2573,-36 2573,0 2682,0 2682,-36"/>
<text text-anchor="middle" x="2627.5" y="-14.3" font-family="Times,serif" font-size="14.00">mulle&#45;sprintf</text>
</a>
</g>
</g>
<!-- mulle&#45;core&#45;&gt;mulle&#45;sprintf -->
<g id="edge26" class="edge">
<title>mulle&#45;core&#45;&gt;mulle&#45;sprintf</title>
<path fill="none" stroke="black" d="M1816.51,-73.86C1819.53,-73.15 1822.55,-72.52 1825.5,-72 2146.03,-15.58 2237.79,-85.66 2562.51,-36.12"/>
<polygon fill="black" stroke="black" points="2563.33,-39.53 2572.67,-34.54 2562.26,-32.61 2563.33,-39.53"/>
</g>
<!-- mulle&#45;storage -->
<g id="node28" class="node">
<title>mulle&#45;storage</title>
<g id="a_node28"><a xlink:href="https://github.com/mulle-c/mulle-storage@*" xlink:title="mulle&#45;storage">
<polygon fill="lightgrey" stroke="black" points="2815,-36 2700,-36 2700,0 2815,0 2815,-36"/>
<text text-anchor="middle" x="2757.5" y="-14.3" font-family="Times,serif" font-size="14.00">mulle&#45;storage</text>
</a>
</g>
</g>
<!-- mulle&#45;core&#45;&gt;mulle&#45;storage -->
<g id="edge27" class="edge">
<title>mulle&#45;core&#45;&gt;mulle&#45;storage</title>
<path fill="none" stroke="black" d="M1816.5,-73.84C1819.53,-73.13 1822.55,-72.51 1825.5,-72 2201.88,-7.14 2308.6,-90.9 2689.78,-36.07"/>
<polygon fill="black" stroke="black" points="2690.3,-39.53 2699.69,-34.62 2689.29,-32.61 2690.3,-39.53"/>
</g>
<!-- mulle&#45;thread -->
<g id="node29" class="node">
<title>mulle&#45;thread</title>
<g id="a_node29"><a xlink:href="https://github.com/mulle-concurrent/mulle-thread@*" xlink:title="mulle&#45;thread">
<polygon fill="lightgrey" stroke="black" points="2941.5,-36 2833.5,-36 2833.5,0 2941.5,0 2941.5,-36"/>
<text text-anchor="middle" x="2887.5" y="-14.3" font-family="Times,serif" font-size="14.00">mulle&#45;thread</text>
</a>
</g>
</g>
<!-- mulle&#45;core&#45;&gt;mulle&#45;thread -->
<g id="edge28" class="edge">
<title>mulle&#45;core&#45;&gt;mulle&#45;thread</title>
<path fill="none" stroke="black" d="M1816.8,-73.75C1819.73,-73.08 1822.64,-72.48 1825.5,-72 2260.23,1.68 2383.33,-100.73 2823.25,-35.96"/>
<polygon fill="black" stroke="black" points="2824,-39.38 2833.37,-34.45 2822.96,-32.46 2824,-39.38"/>
</g>
<!-- mulle&#45;time -->
<g id="node30" class="node">
<title>mulle&#45;time</title>
<g id="a_node30"><a xlink:href="https://github.com/mulle-core/mulle-time@*" xlink:title="mulle&#45;time">
<polygon fill="lightgrey" stroke="black" points="3053,-36 2960,-36 2960,0 3053,0 3053,-36"/>
<text text-anchor="middle" x="3006.5" y="-14.3" font-family="Times,serif" font-size="14.00">mulle&#45;time</text>
</a>
</g>
</g>
<!-- mulle&#45;core&#45;&gt;mulle&#45;time -->
<g id="edge29" class="edge">
<title>mulle&#45;core&#45;&gt;mulle&#45;time</title>
<path fill="none" stroke="black" d="M1816.8,-73.73C1819.72,-73.07 1822.64,-72.48 1825.5,-72 2315.64,10.06 2455.07,-115.68 2950.07,-35.74"/>
<polygon fill="black" stroke="black" points="2950.66,-39.19 2959.97,-34.13 2949.53,-32.28 2950.66,-39.19"/>
</g>
<!-- mulle&#45;unicode -->
<g id="node31" class="node">
<title>mulle&#45;unicode</title>
<g id="a_node31"><a xlink:href="https://github.com/mulle-c/mulle-unicode@*" xlink:title="mulle&#45;unicode">
<polygon fill="lightgrey" stroke="black" points="3187.5,-36 3071.5,-36 3071.5,0 3187.5,0 3187.5,-36"/>
<text text-anchor="middle" x="3129.5" y="-14.3" font-family="Times,serif" font-size="14.00">mulle&#45;unicode</text>
</a>
</g>
</g>
<!-- mulle&#45;core&#45;&gt;mulle&#45;unicode -->
<g id="edge30" class="edge">
<title>mulle&#45;core&#45;&gt;mulle&#45;unicode</title>
<path fill="none" stroke="black" d="M1816.8,-73.72C1819.72,-73.06 1822.64,-72.47 1825.5,-72 2364.78,17.48 2515.94,-110.51 3061.1,-35.99"/>
<polygon fill="black" stroke="black" points="3061.76,-39.44 3071.18,-34.6 3060.8,-32.5 3061.76,-39.44"/>
</g>
<!-- mulle&#45;url -->
<g id="node32" class="node">
<title>mulle&#45;url</title>
<g id="a_node32"><a xlink:href="https://github.com/mulle-c/mulle-url@*" xlink:title="mulle&#45;url">
<polygon fill="lightgrey" stroke="black" points="3287,-36 3206,-36 3206,0 3287,0 3287,-36"/>
<text text-anchor="middle" x="3246.5" y="-14.3" font-family="Times,serif" font-size="14.00">mulle&#45;url</text>
</a>
</g>
</g>
<!-- mulle&#45;core&#45;&gt;mulle&#45;url -->
<g id="edge31" class="edge">
<title>mulle&#45;core&#45;&gt;mulle&#45;url</title>
<path fill="none" stroke="black" d="M1816.8,-73.71C1819.72,-73.05 1822.64,-72.47 1825.5,-72 2123,-23.07 2880,-88.23 3195.71,-35.7"/>
<polygon fill="black" stroke="black" points="3196.58,-39.1 3205.83,-33.94 3195.38,-32.2 3196.58,-39.1"/>
</g>
<!-- mulle&#45;utf -->
<g id="node33" class="node">
<title>mulle&#45;utf</title>
<g id="a_node33"><a xlink:href="https://github.com/mulle-c/mulle-utf@*" xlink:title="mulle&#45;utf">
<polygon fill="lightgrey" stroke="black" points="3386,-36 3305,-36 3305,0 3386,0 3386,-36"/>
<text text-anchor="middle" x="3345.5" y="-14.3" font-family="Times,serif" font-size="14.00">mulle&#45;utf</text>
</a>
</g>
</g>
<!-- mulle&#45;core&#45;&gt;mulle&#45;utf -->
<g id="edge32" class="edge">
<title>mulle&#45;core&#45;&gt;mulle&#45;utf</title>
<path fill="none" stroke="black" d="M1816.8,-73.71C1819.72,-73.05 1822.64,-72.47 1825.5,-72 2144.89,-19.76 2957.85,-92.76 3294.54,-35.97"/>
<polygon fill="black" stroke="black" points="3295.6,-39.33 3304.85,-34.16 3294.39,-32.44 3295.6,-39.33"/>
</g>
<!-- mulle&#45;vararg -->
<g id="node34" class="node">
<title>mulle&#45;vararg</title>
<g id="a_node34"><a xlink:href="https://github.com/mulle-c/mulle-vararg@*" xlink:title="mulle&#45;vararg">
<polygon fill="lightgrey" stroke="black" points="3512.5,-36 3404.5,-36 3404.5,0 3512.5,0 3512.5,-36"/>
<text text-anchor="middle" x="3458.5" y="-14.3" font-family="Times,serif" font-size="14.00">mulle&#45;vararg</text>
</a>
</g>
</g>
<!-- mulle&#45;core&#45;&gt;mulle&#45;vararg -->
<g id="edge33" class="edge">
<title>mulle&#45;core&#45;&gt;mulle&#45;vararg</title>
<path fill="none" stroke="black" d="M1816.79,-73.7C1819.72,-73.04 1822.64,-72.47 1825.5,-72 2166.75,-16.46 3033.81,-84.53 3394.38,-35.89"/>
<polygon fill="black" stroke="black" points="3394.96,-39.34 3404.38,-34.49 3393.99,-32.41 3394.96,-39.34"/>
</g>
</g>
</svg>
