<?xml version="1.0" encoding="UTF-8" standalone="no"?>
<!DOCTYPE svg PUBLIC "-//W3C//DTD SVG 1.1//EN"
 "http://www.w3.org/Graphics/SVG/1.1/DTD/svg11.dtd">
<!-- Generated by graphviz version 2.43.0 (0)
 -->
<!-- Title: sourcetree Pages: 1 -->
<svg width="1108pt" height="188pt"
 viewBox="0.00 0.00 1108.00 188.00" xmlns="http://www.w3.org/2000/svg" xmlns:xlink="http://www.w3.org/1999/xlink">
<g id="graph0" class="graph" transform="scale(1 1) rotate(0) translate(4 184)">
<title>sourcetree</title>
<polygon fill="white" stroke="transparent" points="-4,4 -4,-184 1104,-184 1104,4 -4,4"/>
<!-- mulle&#45;core&#45;all&#45;load -->
<g id="node1" class="node">
<title>mulle&#45;core&#45;all&#45;load</title>
<polygon fill="yellow" stroke="black" points="626,-180 478,-180 478,-144 626,-144 626,-180"/>
<text text-anchor="middle" x="552" y="-158.3" font-family="Times,serif" font-size="14.00">mulle&#45;core&#45;all&#45;load</text>
</g>
<!-- dlfcn&#45;win32 -->
<g id="node2" class="node">
<title>dlfcn&#45;win32</title>
<g id="a_node2"><a xlink:href="https://github.com/mulle-core/dlfcn-win32" xlink:title="dlfcn&#45;win32">
<polygon fill="lightgrey" stroke="black" points="100,-108 0,-108 0,-72 100,-72 100,-108"/>
<text text-anchor="middle" x="50" y="-86.3" font-family="Times,serif" font-size="14.00">dlfcn&#45;win32</text>
</a>
</g>
</g>
<!-- mulle&#45;core&#45;all&#45;load&#45;&gt;dlfcn&#45;win32 -->
<g id="edge1" class="edge">
<title>mulle&#45;core&#45;all&#45;load&#45;&gt;dlfcn&#45;win32</title>
<path fill="none" stroke="black" d="M477.74,-155.8C391.43,-148.93 244.68,-134.7 110.15,-108.05"/>
<polygon fill="black" stroke="black" points="110.57,-104.56 100.08,-106.02 109.19,-111.43 110.57,-104.56"/>
</g>
<!-- libbacktrace -->
<g id="node3" class="node">
<title>libbacktrace</title>
<g id="a_node3"><a xlink:href="https://github.com/mulle-core/libbacktrace" xlink:title="libbacktrace">
<polygon fill="lightgrey" stroke="black" points="222,-108 118,-108 118,-72 222,-72 222,-108"/>
<text text-anchor="middle" x="170" y="-86.3" font-family="Times,serif" font-size="14.00">libbacktrace</text>
</a>
</g>
</g>
<!-- mulle&#45;core&#45;all&#45;load&#45;&gt;libbacktrace -->
<g id="edge2" class="edge">
<title>mulle&#45;core&#45;all&#45;load&#45;&gt;libbacktrace</title>
<path fill="none" stroke="black" d="M477.87,-150.94C415.03,-141.91 322.4,-127.4 232.19,-107.91"/>
<polygon fill="black" stroke="black" points="232.85,-104.47 222.34,-105.76 231.36,-111.31 232.85,-104.47"/>
</g>
<!-- mulle&#45;allocator -->
<g id="node5" class="node">
<title>mulle&#45;allocator</title>
<g id="a_node5"><a xlink:href="https://github.com/mulle-c/mulle-allocator" xlink:title="mulle&#45;allocator">
<polygon fill="lightgrey" stroke="black" points="363.5,-108 240.5,-108 240.5,-72 363.5,-72 363.5,-108"/>
<text text-anchor="middle" x="302" y="-86.3" font-family="Times,serif" font-size="14.00">mulle&#45;allocator</text>
</a>
</g>
</g>
<!-- mulle&#45;core&#45;all&#45;load&#45;&gt;mulle&#45;allocator -->
<g id="edge3" class="edge">
<title>mulle&#45;core&#45;all&#45;load&#45;&gt;mulle&#45;allocator</title>
<path fill="none" stroke="black" d="M491.16,-143.97C455.47,-133.97 410.21,-121.3 372.91,-110.85"/>
<polygon fill="black" stroke="black" points="373.68,-107.44 363.11,-108.11 371.8,-114.18 373.68,-107.44"/>
</g>
<!-- mulle&#45;atexit -->
<g id="node6" class="node">
<title>mulle&#45;atexit</title>
<g id="a_node6"><a xlink:href="https://github.com/mulle-core/mulle-atexit@*" xlink:title="mulle&#45;atexit">
<polygon fill="lightgrey" stroke="black" points="484,-108 382,-108 382,-72 484,-72 484,-108"/>
<text text-anchor="middle" x="433" y="-86.3" font-family="Times,serif" font-size="14.00">mulle&#45;atexit</text>
</a>
</g>
</g>
<!-- mulle&#45;core&#45;all&#45;load&#45;&gt;mulle&#45;atexit -->
<g id="edge4" class="edge">
<title>mulle&#45;core&#45;all&#45;load&#45;&gt;mulle&#45;atexit</title>
<path fill="none" stroke="black" d="M522.89,-143.88C507.33,-134.72 487.98,-123.34 471.22,-113.48"/>
<polygon fill="black" stroke="black" points="472.62,-110.24 462.22,-108.19 469.07,-116.28 472.62,-110.24"/>
</g>
<!-- mulle&#45;atinit -->
<g id="node7" class="node">
<title>mulle&#45;atinit</title>
<g id="a_node7"><a xlink:href="https://github.com/mulle-core/mulle-atinit@*" xlink:title="mulle&#45;atinit">
<polygon fill="lightgrey" stroke="black" points="601.5,-108 502.5,-108 502.5,-72 601.5,-72 601.5,-108"/>
<text text-anchor="middle" x="552" y="-86.3" font-family="Times,serif" font-size="14.00">mulle&#45;atinit</text>
</a>
</g>
</g>
<!-- mulle&#45;core&#45;all&#45;load&#45;&gt;mulle&#45;atinit -->
<g id="edge5" class="edge">
<title>mulle&#45;core&#45;all&#45;load&#45;&gt;mulle&#45;atinit</title>
<path fill="none" stroke="black" d="M552,-143.7C552,-135.98 552,-126.71 552,-118.11"/>
<polygon fill="black" stroke="black" points="555.5,-118.1 552,-108.1 548.5,-118.1 555.5,-118.1"/>
</g>
<!-- mulle&#45;c11 -->
<g id="node8" class="node">
<title>mulle&#45;c11</title>
<g id="a_node8"><a xlink:href="https://github.com/mulle-c/mulle-c11" xlink:title="mulle&#45;c11">
<polygon fill="lightgrey" stroke="black" points="706,-108 620,-108 620,-72 706,-72 706,-108"/>
<text text-anchor="middle" x="663" y="-86.3" font-family="Times,serif" font-size="14.00">mulle&#45;c11</text>
</a>
</g>
</g>
<!-- mulle&#45;core&#45;all&#45;load&#45;&gt;mulle&#45;c11 -->
<g id="edge6" class="edge">
<title>mulle&#45;core&#45;all&#45;load&#45;&gt;mulle&#45;c11</title>
<path fill="none" stroke="black" d="M579.15,-143.88C593.53,-134.81 611.38,-123.55 626.91,-113.76"/>
<polygon fill="black" stroke="black" points="629.15,-116.48 635.74,-108.19 625.42,-110.56 629.15,-116.48"/>
</g>
<!-- mulle&#45;dlfcn -->
<g id="node9" class="node">
<title>mulle&#45;dlfcn</title>
<g id="a_node9"><a xlink:href="https://github.com/mulle-core/mulle-dlfcn@*" xlink:title="mulle&#45;dlfcn">
<polygon fill="lightgrey" stroke="black" points="820,-108 724,-108 724,-72 820,-72 820,-108"/>
<text text-anchor="middle" x="772" y="-86.3" font-family="Times,serif" font-size="14.00">mulle&#45;dlfcn</text>
</a>
</g>
</g>
<!-- mulle&#45;core&#45;all&#45;load&#45;&gt;mulle&#45;dlfcn -->
<g id="edge7" class="edge">
<title>mulle&#45;core&#45;all&#45;load&#45;&gt;mulle&#45;dlfcn</title>
<path fill="none" stroke="black" d="M605.54,-143.97C638.41,-133.5 680.52,-120.11 714.16,-109.4"/>
<polygon fill="black" stroke="black" points="715.39,-112.69 723.86,-106.32 713.27,-106.01 715.39,-112.69"/>
</g>
<!-- mulle&#45;stacktrace -->
<g id="node10" class="node">
<title>mulle&#45;stacktrace</title>
<g id="a_node10"><a xlink:href="https://github.com/mulle-core/mulle-stacktrace@*" xlink:title="mulle&#45;stacktrace">
<polygon fill="lightgrey" stroke="black" points="973.5,-108 838.5,-108 838.5,-72 973.5,-72 973.5,-108"/>
<text text-anchor="middle" x="906" y="-86.3" font-family="Times,serif" font-size="14.00">mulle&#45;stacktrace</text>
</a>
</g>
</g>
<!-- mulle&#45;core&#45;all&#45;load&#45;&gt;mulle&#45;stacktrace -->
<g id="edge8" class="edge">
<title>mulle&#45;core&#45;all&#45;load&#45;&gt;mulle&#45;stacktrace</title>
<path fill="none" stroke="black" d="M626.18,-147.39C679.63,-137.46 753.73,-123.4 828.36,-108.1"/>
<polygon fill="black" stroke="black" points="829.33,-111.48 838.42,-106.03 827.92,-104.62 829.33,-111.48"/>
</g>
<!-- mulle&#45;thread -->
<g id="node11" class="node">
<title>mulle&#45;thread</title>
<g id="a_node11"><a xlink:href="https://github.com/mulle-concurrent/mulle-thread" xlink:title="mulle&#45;thread">
<polygon fill="lightgrey" stroke="black" points="1100,-108 992,-108 992,-72 1100,-72 1100,-108"/>
<text text-anchor="middle" x="1046" y="-86.3" font-family="Times,serif" font-size="14.00">mulle&#45;thread</text>
</a>
</g>
</g>
<!-- mulle&#45;core&#45;all&#45;load&#45;&gt;mulle&#45;thread -->
<g id="edge9" class="edge">
<title>mulle&#45;core&#45;all&#45;load&#45;&gt;mulle&#45;thread</title>
<path fill="none" stroke="black" d="M626.09,-155.09C710.17,-147.67 851.48,-133.02 981.67,-108.11"/>
<polygon fill="black" stroke="black" points="982.67,-111.48 991.82,-106.14 981.33,-104.61 982.67,-111.48"/>
</g>
<!-- mintomic -->
<g id="node4" class="node">
<title>mintomic</title>
<g id="a_node4"><a xlink:href="https://github.com/mulle-concurrent/mintomic" xlink:title="mintomic">
<polygon fill="lightgrey" stroke="black" points="1087.5,-36 1004.5,-36 1004.5,0 1087.5,0 1087.5,-36"/>
<text text-anchor="middle" x="1046" y="-14.3" font-family="Times,serif" font-size="14.00">mintomic</text>
</a>
</g>
</g>
<!-- mulle&#45;thread&#45;&gt;mintomic -->
<g id="edge10" class="edge">
<title>mulle&#45;thread&#45;&gt;mintomic</title>
<path fill="none" stroke="black" d="M1046,-71.7C1046,-63.98 1046,-54.71 1046,-46.11"/>
<polygon fill="black" stroke="black" points="1049.5,-46.1 1046,-36.1 1042.5,-46.1 1049.5,-46.1"/>
</g>
</g>
</svg>
